<?xml version="1.0" encoding="UTF-8" standalone="no"?><!DOCTYPE svg PUBLIC "-//W3C//DTD SVG 1.1//EN" "http://www.w3.org/Graphics/SVG/1.1/DTD/svg11.dtd"><svg width="100%" height="100%" viewBox="0 0 230 50" version="1.1" xmlns="http://www.w3.org/2000/svg" xmlns:xlink="http://www.w3.org/1999/xlink" xml:space="preserve" xmlns:serif="http://www.serif.com/" style="fill-rule:evenodd;clip-rule:evenodd;stroke-linejoin:round;stroke-miterlimit:2;"><g id="dff727ea-c914-4c1d-9325-86d683f65698"><path d="M78.207,24.485c-0.157,-0.41 -0.235,-0.976 -0.235,-1.7c0,-0.723 0.247,-2.869 0.741,-6.438c0.495,-3.556 0.742,-6.414 0.742,-8.572c-0,-0.506 -0.036,-1.199 -0.109,-2.08c1.278,0.073 2.08,0.374 2.406,0.905c0.168,0.313 0.277,0.609 0.325,0.886c0.048,0.277 0.073,0.717 0.073,1.32c-0,0.591 -0.272,2.839 -0.814,6.746c-0.555,3.906 -0.838,6.691 -0.85,8.355c0.084,-0.024 0.235,-0.036 0.452,-0.036c3.653,-0 6.372,-0.254 8.156,-0.76c-0.12,0.977 -0.452,1.736 -0.995,2.279c-0.554,0.542 -1.241,0.813 -2.061,0.813c-0.241,0 -0.971,-0.054 -2.188,-0.162c-1.23,-0.109 -2.418,-0.163 -3.563,-0.163c-1.146,-0 -2.297,0.108 -3.454,0.325c0.229,-0.747 0.687,-1.32 1.374,-1.718Zm16.656,-8.391c-0.482,0.844 -0.856,1.712 -1.121,2.604c-0.265,0.88 -0.398,1.73 -0.398,2.55c-0,0.808 0.181,1.495 0.542,2.062c0.362,0.567 0.881,0.85 1.556,0.85c0.952,-0 1.838,-0.519 2.658,-1.555c0.832,-1.049 1.471,-2.309 1.917,-3.78c0.446,-1.483 0.669,-2.851 0.669,-4.105c0,-1.254 -0.048,-2.285 -0.144,-3.093c0.397,-0.036 0.651,-0.054 0.759,-0.054c1.435,-0 2.152,0.735 2.152,2.206c0,0.314 -0.205,1.616 -0.615,3.907c-0.397,2.29 -0.596,4.123 -0.596,5.497c-0,1.375 0.259,2.592 0.777,3.653c-1.061,-0.217 -1.832,-0.687 -2.315,-1.41c-0.482,-0.712 -0.723,-1.742 -0.723,-3.093c0,-0.241 0.036,-0.699 0.109,-1.374c-0.459,1.603 -1.26,2.893 -2.406,3.87c-1.157,0.989 -2.284,1.483 -3.382,1.483c-1.109,-0 -2.001,-0.422 -2.676,-1.266c-0.675,-0.832 -1.013,-1.983 -1.013,-3.454c0,-1.483 0.277,-2.93 0.832,-4.34c0.543,-1.411 1.368,-2.629 2.478,-3.654c1.097,-1.036 2.333,-1.555 3.707,-1.555c0.591,0 1.242,0.121 1.953,0.362c-1.001,0.253 -1.917,0.717 -2.749,1.392c-0.82,0.676 -1.477,1.441 -1.971,2.297Zm25.481,-7.686l0.018,0.308c0,0.639 -0.241,2.736 -0.723,6.293c-0.482,3.545 -0.723,6.511 -0.723,8.898c-0,1.061 0.054,1.887 0.162,2.477c-0.41,0.036 -0.633,0.055 -0.669,0.055c-0.759,-0 -1.326,-0.175 -1.7,-0.525c-0.361,-0.35 -0.542,-0.916 -0.542,-1.7c-0,-0.784 0.283,-3.183 0.85,-7.198c0.554,-4.002 0.832,-6.86 0.832,-8.572c-0,-1.712 -0.115,-2.833 -0.344,-3.363c0.543,0.072 1.043,0.283 1.501,0.633c0.47,0.337 0.82,0.795 1.049,1.374c1.29,-0.687 2.725,-1.031 4.304,-1.031c1.567,0 2.803,0.482 3.707,1.447c0.905,0.976 1.357,2.17 1.357,3.581c-0,1.808 -0.657,3.436 -1.971,4.883c-1.315,1.434 -3.087,2.152 -5.317,2.152c-0.507,-0 -0.971,-0.031 -1.393,-0.091l-0.072,-0.814c1.133,0 2.122,-0.168 2.966,-0.506c0.844,-0.338 1.483,-0.784 1.917,-1.338c0.856,-1.085 1.284,-2.351 1.284,-3.798c-0,-1.049 -0.332,-1.923 -0.995,-2.622c-0.663,-0.7 -1.628,-1.049 -2.894,-1.049c-0.759,-0 -1.627,0.169 -2.604,0.506Zm14.685,7.686c-0.494,0.844 -0.874,1.712 -1.139,2.604c-0.254,0.88 -0.38,1.73 -0.38,2.55c-0,0.808 0.181,1.495 0.542,2.062c0.362,0.567 0.881,0.85 1.556,0.85c0.94,-0 1.826,-0.519 2.658,-1.555c0.82,-1.049 1.453,-2.309 1.899,-3.78c0.458,-1.483 0.687,-2.851 0.687,-4.105c0,-1.254 -0.054,-2.285 -0.163,-3.093c0.41,-0.036 0.664,-0.054 0.76,-0.054c1.435,-0 2.152,0.735 2.152,2.206c0,0.314 -0.199,1.616 -0.597,3.907c-0.41,2.29 -0.615,4.123 -0.615,5.497c0,1.375 0.26,2.592 0.778,3.653c-1.061,-0.217 -1.832,-0.687 -2.315,-1.41c-0.482,-0.712 -0.723,-1.742 -0.723,-3.093c-0,-0.241 0.036,-0.699 0.108,-1.374c-0.458,1.603 -1.26,2.893 -2.405,3.87c-1.145,0.989 -2.273,1.483 -3.382,1.483c-1.109,-0 -2.001,-0.422 -2.676,-1.266c-0.675,-0.832 -1.013,-1.983 -1.013,-3.454c0,-1.483 0.277,-2.93 0.832,-4.34c0.542,-1.411 1.368,-2.629 2.478,-3.654c1.109,-1.036 2.344,-1.555 3.707,-1.555c0.591,0 1.242,0.121 1.953,0.362c-1.001,0.253 -1.911,0.717 -2.731,1.392c-0.832,0.676 -1.489,1.441 -1.971,2.297Zm24.215,-1.103c0,0.772 -0.162,2.14 -0.488,4.105c-0.325,1.965 -0.488,3.4 -0.488,4.304c-0,0.892 0.108,1.537 0.325,1.935c0.217,0.398 0.591,0.736 1.122,1.013c-0.23,0.024 -0.543,0.036 -0.941,0.036c-1.145,0 -1.959,-0.217 -2.441,-0.651c-0.483,-0.434 -0.724,-1.205 -0.724,-2.315c0,-0.627 0.169,-1.886 0.507,-3.779c0.337,-1.905 0.506,-3.304 0.506,-4.196c0,-1.109 -0.338,-1.664 -1.013,-1.664c-1.085,0 -2.206,0.953 -3.363,2.858c-1.158,1.905 -1.737,4.201 -1.737,6.89c0,1.061 0.055,1.887 0.163,2.477c-0.446,0.037 -0.711,0.055 -0.796,0.055c-1.482,-0 -2.224,-0.73 -2.224,-2.188c0,-0.338 0.181,-1.634 0.543,-3.889c0.349,-2.266 0.524,-4.069 0.524,-5.407c0,-1.35 -0.145,-2.586 -0.434,-3.707c1.001,0.385 1.7,0.934 2.098,1.645c0.398,0.724 0.597,1.544 0.597,2.46c-0,0.916 -0.103,1.983 -0.308,3.201c0.555,-1.905 1.429,-3.509 2.622,-4.811c1.182,-1.314 2.291,-1.971 3.328,-1.971c1.748,0 2.622,1.2 2.622,3.599Zm12.135,-2.857c0,0.699 -0.133,1.187 -0.398,1.464c-0.277,0.266 -0.675,0.398 -1.193,0.398l-1.827,0c-0.072,0.446 -0.247,1.495 -0.524,3.147c-0.579,3.135 -0.868,5.504 -0.868,7.107c-0,1.604 0.12,2.671 0.361,3.201c-0.964,-0.361 -1.651,-0.898 -2.061,-1.609c-0.398,-0.724 -0.597,-1.598 -0.597,-2.623c-0,-1.036 0.06,-2.013 0.181,-2.929c0.132,-0.917 0.313,-1.99 0.542,-3.219c0.241,-1.242 0.41,-2.231 0.507,-2.966c-0.965,0.132 -1.911,0.404 -2.84,0.814c-0.024,-0.278 -0.036,-0.525 -0.036,-0.742c0,-0.808 0.265,-1.35 0.796,-1.627c0.542,-0.278 1.32,-0.416 2.333,-0.416c0.12,-1.254 0.181,-2.189 0.181,-2.804c-0,-0.614 -0.006,-1.109 -0.018,-1.482l-0,-0.832c0.771,0.12 1.368,0.464 1.79,1.03c0.422,0.555 0.633,1.327 0.633,2.315c-0,0.507 -0.042,1.122 -0.127,1.845c1.471,-0 2.508,-0.247 3.111,-0.742c0.036,0.242 0.054,0.465 0.054,0.67Zm4.756,6.04c0.555,-1.905 1.411,-3.509 2.568,-4.811c1.158,-1.314 2.243,-1.971 3.256,-1.971c1.012,0 1.73,0.308 2.152,0.922c0.422,0.615 0.633,1.453 0.633,2.514c-0,1.049 -0.163,2.526 -0.489,4.431c-0.325,1.917 -0.488,3.309 -0.488,4.177c0,0.869 0.109,1.501 0.326,1.899c0.217,0.398 0.584,0.736 1.103,1.013c-0.217,0.024 -0.525,0.036 -0.923,0.036c-1.085,0 -1.886,-0.223 -2.405,-0.669c-0.506,-0.446 -0.759,-1.212 -0.759,-2.297c-0,-0.627 0.168,-1.886 0.506,-3.779c0.338,-1.905 0.506,-3.304 0.506,-4.196c0,-1.109 -0.391,-1.664 -1.175,-1.664c-0.458,0 -0.965,0.241 -1.519,0.724c-0.555,0.47 -1.091,1.115 -1.61,1.935c-0.506,0.82 -0.934,1.862 -1.284,3.128c-0.349,1.254 -0.524,2.49 -0.524,3.708c-0,1.229 0.054,2.14 0.163,2.73c-0.41,0.037 -0.639,0.055 -0.688,0.055c-0.795,-0 -1.38,-0.169 -1.754,-0.507c-0.386,-0.337 -0.579,-0.868 -0.579,-1.591c0,-0.711 0.151,-2.092 0.453,-4.141c0.892,-6.282 1.338,-11.05 1.338,-14.305c-0,-1.471 -0.097,-2.46 -0.29,-2.966c0.977,0.361 1.664,0.886 2.062,1.573c0.398,0.699 0.597,1.652 0.597,2.857c-0,0.844 -0.169,2.617 -0.507,5.317c-0.325,2.701 -0.548,4.66 -0.669,5.878Zm19.152,-5.462c-1.013,0 -1.869,0.579 -2.568,1.736c-0.711,1.17 -1.182,2.538 -1.411,4.106l0.706,-0c0.892,-0 1.669,-0.127 2.333,-0.38c0.651,-0.253 1.157,-0.579 1.519,-0.977c0.675,-0.783 1.012,-1.664 1.012,-2.64c0,-0.555 -0.132,-1.001 -0.397,-1.338c-0.266,-0.338 -0.664,-0.507 -1.194,-0.507Zm3.563,10.254c-0.772,1.266 -1.622,2.152 -2.55,2.659c-0.929,0.506 -2.008,0.759 -3.237,0.759c-1.218,0 -2.285,-0.542 -3.201,-1.627c-0.917,-1.073 -1.375,-2.592 -1.375,-4.558c0,-2.23 0.603,-4.219 1.809,-5.968c0.59,-0.844 1.362,-1.531 2.314,-2.061c0.953,-0.519 2.002,-0.778 3.147,-0.778c2.532,0 3.798,1.224 3.798,3.671c-0,1.471 -0.567,2.623 -1.7,3.454c-1.145,0.832 -2.466,1.248 -3.961,1.248c-1,0 -1.898,-0.09 -2.694,-0.271c-0.012,0.169 -0.018,0.428 -0.018,0.778c-0,2.99 0.886,4.485 2.658,4.485c1.664,-0 3.02,-0.826 4.069,-2.478c0.627,0.084 0.941,0.314 0.941,0.687Zm-0.507,-13.473c-0.012,0.181 -0.102,0.356 -0.271,0.525c-0.157,0.156 -0.338,0.259 -0.543,0.307c-0.602,-0.759 -1.38,-1.507 -2.332,-2.242c-0.953,-0.748 -1.923,-1.272 -2.912,-1.574c0.036,-0.88 0.446,-1.573 1.23,-2.079c0.892,0.349 1.814,1.048 2.767,2.097c0.952,1.037 1.639,2.026 2.061,2.966Zm7.469,8.283c0.603,-2.194 1.332,-3.81 2.188,-4.847c0.856,-1.037 1.652,-1.555 2.388,-1.555c0.735,0 1.284,0.271 1.645,0.814c0.374,0.554 0.561,1.254 0.561,2.098c-0,0.844 -0.217,1.573 -0.651,2.188c-0.446,0.615 -1.091,0.922 -1.935,0.922c-0.265,0 -0.476,-0.018 -0.633,-0.054c0.579,-0.832 0.868,-1.676 0.868,-2.532c-0,-0.603 -0.247,-0.904 -0.742,-0.904c-0.385,-0 -0.795,0.223 -1.229,0.669c-0.446,0.458 -0.868,1.091 -1.266,1.899c-0.41,0.82 -0.748,1.875 -1.013,3.165c-0.277,1.302 -0.416,2.706 -0.416,4.213c0,0.169 0.042,0.887 0.127,2.152c-0.434,0.037 -0.688,0.055 -0.76,0.055c-1.483,-0 -2.224,-0.73 -2.224,-2.188c-0,-0.338 0.181,-1.634 0.542,-3.889c0.35,-2.266 0.525,-4.069 0.525,-5.407c-0,-1.35 -0.145,-2.586 -0.434,-3.707c1,0.385 1.7,0.934 2.098,1.645c0.397,0.724 0.596,1.562 0.596,2.514c0,0.953 -0.078,1.869 -0.235,2.749Zm14.92,-5.064c-1.013,0 -1.875,0.579 -2.586,1.736c-0.699,1.17 -1.164,2.538 -1.393,4.106l0.706,-0c0.892,-0 1.67,-0.127 2.333,-0.38c0.651,-0.253 1.157,-0.579 1.519,-0.977c0.675,-0.783 1.012,-1.664 1.012,-2.64c0,-0.555 -0.132,-1.001 -0.397,-1.338c-0.266,-0.338 -0.663,-0.507 -1.194,-0.507Zm3.563,10.254c-0.772,1.266 -1.622,2.152 -2.55,2.659c-0.929,0.506 -2.008,0.759 -3.237,0.759c-1.218,0 -2.285,-0.542 -3.201,-1.627c-0.917,-1.073 -1.375,-2.592 -1.375,-4.558c0,-2.23 0.603,-4.219 1.809,-5.968c0.59,-0.844 1.362,-1.531 2.315,-2.061c0.952,-0.519 2.001,-0.778 3.146,-0.778c2.532,0 3.798,1.224 3.798,3.671c-0,1.471 -0.567,2.623 -1.7,3.454c-1.145,0.832 -2.465,1.248 -3.96,1.248c-1.001,0 -1.899,-0.09 -2.695,-0.271c-0.012,0.169 -0.018,0.428 -0.018,0.778c-0,2.99 0.886,4.485 2.658,4.485c1.664,-0 3.02,-0.826 4.069,-2.478c0.627,0.084 0.941,0.314 0.941,0.687Z" style="fill-rule:nonzero;"/></g><g id="dfe8044c-91b6-4966-9038-a63642c35301"><path d="M30.552,22.45l-0,-0.045c-0.488,-0.861 -1.302,-1.49 -2.258,-1.745l-0.09,0c-0.522,-0.159 -1.06,-0.26 -1.604,-0.301c-1.471,-0.197 -2.88,-0.719 -4.125,-1.527c-0.075,-0.045 -0.16,-0.069 -0.247,-0.069c-0.264,0 -0.482,0.218 -0.482,0.482c0,0.15 0.071,0.292 0.19,0.382c0.412,0.266 0.84,0.504 1.283,0.713c0,0.064 -0.057,0.128 -0.077,0.198c-0.582,2.051 0.616,4.22 2.663,4.818c0.371,0.106 0.755,0.16 1.141,0.16c1.175,0.007 2.288,-0.535 3.009,-1.462c0.056,0.643 0.017,1.292 -0.115,1.924c-0.024,0.058 -0.036,0.12 -0.036,0.183c-0,0.209 0.137,0.396 0.337,0.459c0.051,0.008 0.103,0.008 0.154,-0c0.206,-0 0.39,-0.132 0.456,-0.327c0.205,-0.861 0.255,-1.752 0.147,-2.631c-0.033,-0.423 -0.151,-0.835 -0.346,-1.212Zm-2.868,-0.956c0.023,0.11 0.023,0.224 0,0.334c-0.102,0.362 -0.435,0.615 -0.811,0.615c-0.463,-0 -0.843,-0.381 -0.843,-0.843c-0,-0.077 0.01,-0.154 0.031,-0.228c0.017,-0.037 0.036,-0.074 0.058,-0.109l0.385,0.045c0.402,0.03 0.802,0.094 1.193,0.193l-0.013,-0.007Zm0.603,2.727c-0.689,0.354 -1.49,0.428 -2.232,0.205c-1.549,-0.447 -2.457,-2.087 -2.015,-3.637l0,-0.077c0.357,0.138 0.721,0.255 1.091,0.352l-0,0.039c-0.056,0.176 -0.084,0.359 -0.084,0.544c-0,0.985 0.811,1.796 1.796,1.796c0.907,-0 1.68,-0.688 1.784,-1.59c0.385,0.195 0.712,0.487 0.95,0.847c-0.221,0.649 -0.677,1.191 -1.277,1.521l-0.013,-0Zm17.385,-3.695c-0,-0.071 -0.052,-0.129 -0.077,-0.199c0.443,-0.209 0.871,-0.447 1.283,-0.712c0.119,-0.091 0.19,-0.233 0.19,-0.383c-0,-0.264 -0.218,-0.481 -0.482,-0.481c-0.087,-0 -0.172,0.023 -0.247,0.068c-1.245,0.808 -2.654,1.33 -4.125,1.527c-0.548,0.04 -1.09,0.141 -1.616,0.301l-0.077,0c-0.964,0.255 -1.784,0.889 -2.271,1.758l-0,0.032c-0.201,0.389 -0.319,0.815 -0.347,1.251c-0.108,0.879 -0.058,1.769 0.148,2.63c0.066,0.195 0.25,0.327 0.455,0.327c0.003,0 0.006,0.001 0.009,0.001c0.263,-0 0.481,-0.218 0.481,-0.482c-0,-0.054 -0.01,-0.109 -0.028,-0.16c-0.135,-0.632 -0.176,-1.281 -0.122,-1.925c0.721,0.928 1.834,1.469 3.009,1.463c0.386,0 0.77,-0.054 1.142,-0.16c1.672,-0.478 2.833,-2.018 2.833,-3.757c-0,-0.372 -0.053,-0.742 -0.158,-1.099Zm-3.4,0.782l0.385,-0.045c0.022,0.035 0.041,0.072 0.057,0.109c0.123,0.438 -0.134,0.9 -0.57,1.027c-0.078,0.024 -0.16,0.036 -0.241,0.036c-0.447,0 -0.815,-0.368 -0.815,-0.815c0,-0.042 0.003,-0.084 0.01,-0.126c0.387,-0.095 0.782,-0.158 1.18,-0.186l-0.006,0Zm0.468,3.118c-0.742,0.223 -1.543,0.149 -2.232,-0.205c-0.604,-0.33 -1.063,-0.875 -1.283,-1.527c0.238,-0.358 0.565,-0.648 0.949,-0.841c0.01,0.08 0.025,0.16 0.045,0.238c0.227,0.76 0.932,1.285 1.726,1.283c0.971,-0.02 1.758,-0.825 1.758,-1.796c0,-0.154 -0.019,-0.307 -0.058,-0.456l-0,-0.038c0.37,-0.097 0.734,-0.215 1.09,-0.353l0,0.077c0.432,1.538 -0.463,3.162 -1.995,3.618Z" style="fill:#1d1d1b;fill-rule:nonzero;"/><path d="M32.046,21.693c-0.102,-1.443 -1.283,-2.361 -3.303,-2.515c-1.068,-0.139 -2.092,-0.509 -3.003,-1.084c-0.079,-0.052 -0.171,-0.08 -0.266,-0.08c-0.264,-0 -0.481,0.217 -0.481,0.481c-0,0.161 0.081,0.312 0.215,0.401c1.047,0.667 2.231,1.09 3.464,1.238c0.866,0.064 2.329,0.366 2.418,1.623c0.017,0.252 0.229,0.45 0.482,0.449l0.032,0c0.261,-0.02 0.461,-0.251 0.442,-0.513Zm8.327,-1.559c1.233,-0.148 2.417,-0.571 3.464,-1.238c0.134,-0.089 0.215,-0.24 0.215,-0.401c0,-0.264 -0.217,-0.481 -0.481,-0.481c-0.095,-0 -0.187,0.028 -0.266,0.08c-0.911,0.583 -1.938,0.959 -3.009,1.104c-1.995,0.154 -3.207,1.071 -3.304,2.514c-0,0.011 -0.001,0.022 -0.001,0.033c0,0.253 0.199,0.464 0.45,0.481l0.032,-0c0.253,0 0.465,-0.198 0.482,-0.45c0.089,-1.295 1.578,-1.571 2.418,-1.642Zm-15.826,-3.342c0.091,0.118 0.232,0.187 0.381,0.187c0.264,0 0.481,-0.217 0.481,-0.481c0,-0.116 -0.042,-0.228 -0.118,-0.315l-2.046,-2.515c-0.091,-0.118 -0.232,-0.187 -0.381,-0.187c-0.264,-0 -0.481,0.217 -0.481,0.481c-0,0.116 0.042,0.228 0.118,0.315l2.046,2.515Zm2.156,-1.392c0.071,0.185 0.25,0.308 0.449,0.308c0.262,-0.003 0.476,-0.219 0.476,-0.481c0,-0.055 -0.009,-0.109 -0.027,-0.161l-0.905,-2.36c-0.071,-0.186 -0.25,-0.308 -0.449,-0.308c-0.264,-0 -0.481,0.217 -0.481,0.481c-0,0.059 0.011,0.118 0.032,0.173l0.905,2.348Zm2.566,0.071c0.25,0 0.461,-0.194 0.481,-0.443l0.16,-2.04c0.001,-0.013 0.002,-0.027 0.002,-0.04c-0,-0.25 -0.195,-0.461 -0.444,-0.48c-0.016,-0.001 -0.031,-0.002 -0.046,-0.002c-0.25,0 -0.458,0.196 -0.474,0.445l-0.16,2.046c-0.001,0.011 -0.002,0.022 -0.002,0.032c0,0.264 0.218,0.482 0.482,0.482c-0,-0 0,-0 0.001,-0Z" style="fill:#1d1d1b;fill-rule:nonzero;"/><path d="M63.467,32.028c-2.502,-0.796 -8.391,-0.725 -13.176,-0.507c3.207,-4.048 3.207,-7.961 2.636,-9.802c-0.436,-1.379 -1.11,-4.856 -0.25,-6.21c0.159,-0.275 0.441,-0.459 0.757,-0.494c1.129,-0.147 1.334,-1.321 1.495,-2.258c0.043,-0.336 0.118,-0.666 0.224,-0.988c0.194,-0.346 0.461,-0.646 0.783,-0.879c0.898,-0.717 1.6,-1.651 2.04,-2.713c1.02,-2.509 -0.347,-3.747 -0.404,-3.798c-0.054,-0.04 -0.115,-0.069 -0.18,-0.083l-0.09,-0c-1.049,-0.274 -2.165,-0.105 -3.085,0.468c-0.437,0.212 -0.976,0.468 -1.771,0.802c-1.708,0.86 -3.791,0.517 -5.132,-0.847c-2.887,-2.771 -4.92,-3.573 -12.881,-3.573c-7.961,-0 -9.969,0.808 -12.83,3.573c-1.342,1.364 -3.424,1.707 -5.132,0.847c-0.598,-0.25 -1.189,-0.518 -1.771,-0.802c-0.92,-0.573 -2.037,-0.742 -3.085,-0.468l-0.09,-0c-0.065,0.014 -0.127,0.043 -0.18,0.083c-0.058,0.051 -1.424,1.283 -0.404,3.798c0.439,1.062 1.141,1.996 2.04,2.713c0.322,0.233 0.589,0.533 0.783,0.879c0.068,0.334 0.104,0.673 0.109,1.014c0.16,0.943 0.359,2.11 1.494,2.258c0.317,0.035 0.598,0.218 0.757,0.494c0.86,1.353 0.186,4.83 -0.25,6.209c-0.584,1.841 -0.558,5.774 2.637,9.803c-4.786,-0.219 -10.675,-0.289 -13.177,0.506c-0.198,0.064 -0.334,0.25 -0.334,0.459c0,0.264 0.218,0.482 0.482,0.482c0.05,-0 0.1,-0.008 0.147,-0.023c2.624,-0.834 9.623,-0.642 13.587,-0.424l0.161,0l0.417,0.443c-4.927,0.07 -8.269,0.41 -9.944,1.013c-0.196,0.065 -0.33,0.25 -0.33,0.457c0,0.264 0.217,0.481 0.481,0.481c0.061,0 0.12,-0.011 0.177,-0.033c1.655,-0.597 5.324,-0.93 10.623,-0.969c0.224,0.193 0.455,0.379 0.686,0.565c-4.15,0.231 -10.905,0.776 -13.471,1.924c-0.157,0.084 -0.255,0.247 -0.255,0.425c-0,0.264 0.217,0.481 0.481,0.481c0.054,0 0.108,-0.009 0.159,-0.027c2.675,-1.174 10.379,-1.693 14.254,-1.892l0.641,0.462l0.064,0.045c-4.035,0.391 -6.793,0.898 -8.204,1.513c-0.157,0.084 -0.255,0.248 -0.255,0.425c-0,0.264 0.217,0.481 0.481,0.481c0.054,0 0.107,-0.009 0.159,-0.027c1.327,-0.583 4.137,-1.084 8.159,-1.462c-0.018,1.186 0.129,2.369 0.437,3.515c1.045,2.771 2.476,3.451 4.144,3.593c0.24,0.451 0.572,0.846 0.975,1.161c-0.897,0.812 -1.634,1.785 -2.175,2.867c-0.021,0.055 -0.032,0.114 -0.032,0.173c-0,0.264 0.217,0.482 0.481,0.482c0.199,-0 0.378,-0.123 0.449,-0.308c0.173,-0.449 0.693,-1.283 2.111,-2.688c0.41,0.208 0.84,0.376 1.283,0.5c-0.312,0.698 -0.511,1.44 -0.59,2.2c-0.001,0.009 -0.001,0.018 -0.001,0.027c-0,0.254 0.202,0.467 0.456,0.48c0.255,0.001 0.468,-0.201 0.481,-0.455c0.085,-0.705 0.282,-1.392 0.584,-2.034c1.389,0.232 2.806,0.232 4.195,0c0.301,0.643 0.498,1.329 0.584,2.034c0.014,0.254 0.227,0.456 0.481,0.455c0.254,-0.013 0.456,-0.226 0.456,-0.48c0,-0.009 0,-0.018 -0,-0.027c-0.073,-0.761 -0.266,-1.505 -0.571,-2.206c0.443,-0.124 0.873,-0.292 1.283,-0.501c1.417,1.405 1.924,2.239 2.11,2.688c0.072,0.185 0.251,0.308 0.449,0.308c0.264,0 0.482,-0.217 0.482,-0.481c-0,-0.059 -0.011,-0.118 -0.033,-0.173c-0.54,-1.083 -1.278,-2.055 -2.174,-2.868c0.403,-0.314 0.735,-0.71 0.975,-1.161c1.668,-0.141 3.098,-0.815 4.137,-3.586c0.3,-1.14 0.44,-2.317 0.417,-3.496c4.023,0.378 6.839,0.879 8.16,1.463c0.07,0.037 0.148,0.056 0.226,0.056c0.264,0 0.482,-0.217 0.482,-0.481c-0,-0.204 -0.13,-0.387 -0.323,-0.454c-1.424,-0.642 -4.234,-1.136 -8.339,-1.527l0.513,-0.359l0.199,-0.141c3.849,0.192 11.675,0.712 14.382,1.924c0.051,0.018 0.105,0.027 0.159,0.027c0.264,0 0.481,-0.217 0.481,-0.481c0,-0.178 -0.098,-0.341 -0.255,-0.425c-2.604,-1.142 -9.372,-1.681 -13.516,-1.924c0.243,-0.184 0.481,-0.372 0.712,-0.565c5.311,0.032 8.981,0.366 10.642,0.969c0.049,0.016 0.1,0.024 0.151,0.024c0.264,0 0.481,-0.217 0.481,-0.481c0,-0.197 -0.121,-0.375 -0.305,-0.448c-1.667,-0.603 -5.01,-0.943 -9.943,-1.013l0.417,-0.443l0.161,0c3.945,-0.199 10.963,-0.41 13.586,0.424c0.049,0.014 0.1,0.022 0.151,0.022c0.284,0 0.517,-0.233 0.517,-0.516c-0,-0.227 -0.149,-0.428 -0.366,-0.494Zm-26.943,12.13c-0.086,-0.148 -0.245,-0.24 -0.417,-0.24c-0.264,-0 -0.481,0.217 -0.481,0.481c-0,0.084 0.022,0.167 0.064,0.241c0.103,0.173 0.25,0.449 0.411,0.769c-1.111,0.162 -2.239,0.162 -3.349,0c0.225,-0.455 0.404,-0.763 0.411,-0.769c0.042,-0.074 0.064,-0.157 0.064,-0.241c-0,-0.264 -0.217,-0.481 -0.481,-0.481c-0.172,-0 -0.332,0.092 -0.417,0.24c-0,0.039 -0.27,0.469 -0.559,1.065c-0.876,-0.189 -1.676,-0.635 -2.296,-1.283l1.559,0c1.404,-0.005 2.698,-0.779 3.368,-2.014c0.675,1.24 1.981,2.013 3.393,2.008l1.559,-0c-0.62,0.647 -1.42,1.094 -2.297,1.283c-0.288,-0.577 -0.532,-1.001 -0.558,-1.046l0.026,-0.013Zm10.97,-11.072l-0.052,0.039c-0.539,0.449 -1.135,0.885 -1.719,1.283l-0.5,-0c0.083,-1.097 0.288,-2.085 0.686,-2.38c0.118,-0.093 0.188,-0.235 0.188,-0.385c-0,-0.268 -0.221,-0.489 -0.489,-0.489c-0.11,-0 -0.216,0.036 -0.302,0.104c-0.641,0.532 -0.924,1.693 -1.046,3.098l-0.391,0c-0.008,-0 -0.017,-0 -0.025,-0c-0.257,-0 -0.469,0.211 -0.469,0.468l0,0.014c0,0.259 0.209,0.474 0.469,0.481l0.359,-0l-0,0.474l-0.116,0c-0.261,-0.018 -0.492,0.176 -0.519,0.436c-0.022,0.262 0.174,0.496 0.436,0.52l0.135,0c0.018,1.091 -0.103,2.179 -0.36,3.24c-0.904,2.405 -1.988,2.912 -3.56,2.989l-2.425,0c-1.576,-0.003 -2.878,-1.285 -2.906,-2.861c0.224,-0.211 0.474,-0.392 0.744,-0.539c0.642,-0.41 1.585,-0.975 1.238,-1.79c-0.121,-0.282 -0.038,-0.417 1.065,-1.167l0.404,-0.276c0.479,-0.257 0.794,-0.742 0.834,-1.283c-0.03,-0.419 -0.256,-0.8 -0.609,-1.026c-0.216,-0.132 -0.501,-0.069 -0.642,0.141c-0.126,0.215 -0.067,0.495 0.135,0.641c0.052,0.039 0.167,0.148 0.173,0.238c0.007,0.089 -0.109,0.263 -0.423,0.481l-0.398,0.275c-1.045,0.706 -1.866,1.283 -1.411,2.291c-0.051,0.16 -0.571,0.474 -0.853,0.641c-0.253,0.148 -0.495,0.313 -0.725,0.494c-0.23,-0.181 -0.473,-0.346 -0.725,-0.494c-0.305,-0.167 -0.591,-0.367 -0.853,-0.596c0.455,-1.072 -0.372,-1.63 -1.412,-2.342l-0.397,-0.276c-0.308,-0.218 -0.424,-0.391 -0.424,-0.481c0,-0.09 0.116,-0.199 0.167,-0.237c0.126,-0.091 0.2,-0.236 0.2,-0.391c0,-0.264 -0.217,-0.481 -0.481,-0.481c-0.084,0 -0.166,0.022 -0.238,0.063c-0.354,0.227 -0.58,0.608 -0.61,1.027c0.041,0.541 0.356,1.026 0.834,1.283l0.404,0.276c1.11,0.75 1.187,0.885 1.065,1.167c-0.346,0.821 0.571,1.379 1.238,1.79c0.259,0.148 0.508,0.313 0.744,0.494c-0.007,1.593 -1.319,2.9 -2.912,2.9l-1.001,-0c-2.386,0.057 -3.849,0.089 -4.991,-2.99c-0.256,-1.06 -0.377,-2.149 -0.359,-3.239l0.135,-0c0.248,-0.022 0.441,-0.232 0.441,-0.482c0,-0.264 -0.218,-0.482 -0.483,-0.482c-0.014,-0 -0.028,0 -0.042,0.001l-0.089,0l-0,-0.474l0.359,-0c0.264,-0 0.481,-0.218 0.481,-0.482c-0,-0.263 -0.217,-0.481 -0.481,-0.481l-0.391,0c-0.122,-1.405 -0.373,-2.566 -1.046,-3.098c-0.094,-0.076 -0.21,-0.117 -0.331,-0.117c-0.287,-0 -0.524,0.237 -0.524,0.524c0,0.158 0.071,0.308 0.194,0.408c0.398,0.314 0.584,1.283 0.68,2.38l-0.609,-0c-0.546,-0.411 -1.091,-0.841 -1.591,-1.283c-0.028,-0.035 -0.06,-0.065 -0.096,-0.09c-0.167,-0.148 -0.334,-0.295 -0.488,-0.443l1.495,0.096l0.038,0c0.007,0.001 0.013,0.001 0.019,0.001c0.265,-0 0.482,-0.218 0.482,-0.482c-0,-0.257 -0.206,-0.471 -0.462,-0.481c-0.257,-0.01 -1.007,-0.077 -2.566,-0.16c-3.49,-3.971 -3.58,-7.827 -3.028,-9.571c-0,-0.052 1.494,-4.889 0.147,-7.012c-0.309,-0.501 -0.827,-0.838 -1.411,-0.917c-0.398,-0.052 -0.526,-0.642 -0.641,-1.469c-0.055,-0.402 -0.15,-0.798 -0.283,-1.181c-0.243,-0.494 -0.602,-0.923 -1.045,-1.251c-0.789,-0.617 -1.403,-1.428 -1.784,-2.354c-0.641,-1.514 -0.147,-2.348 0.064,-2.617c0.47,-0.041 0.939,0.081 1.328,0.346c0.045,0.039 4.824,3.541 6.922,3.541l0.225,0c-1.925,1.379 -3.054,3.144 -3.054,4.869c0,0.264 0.217,0.481 0.481,0.481c0.264,0 0.481,-0.217 0.481,-0.481c0,-1.802 1.668,-3.778 4.253,-5.042c1.007,-0.15 1.979,-0.473 2.874,-0.956c0.158,-0.083 0.256,-0.247 0.256,-0.425c0,-0.264 -0.217,-0.481 -0.481,-0.481c-0.085,-0 -0.169,0.023 -0.243,0.066c-1.505,0.742 -3.173,1.091 -4.85,1.013c-0.801,0 -2.335,-0.776 -3.759,-1.635c2.021,0.908 4.407,0.464 5.966,-1.11c2.566,-2.451 4.163,-3.304 12.189,-3.304c8.025,0 9.622,0.86 12.188,3.304c0.976,0.994 2.309,1.56 3.702,1.571c0.755,-0.011 1.503,-0.159 2.206,-0.436c-1.417,0.853 -2.951,1.623 -3.746,1.623c-1.676,0.077 -3.345,-0.271 -4.85,-1.013c-0.069,-0.037 -0.147,-0.056 -0.225,-0.056c-0.264,-0 -0.481,0.217 -0.481,0.481c-0,0.17 0.091,0.329 0.238,0.415c0.901,0.489 1.88,0.817 2.893,0.969c2.566,1.283 4.253,3.207 4.253,5.042c0,0.264 0.217,0.481 0.481,0.481c0.264,-0 0.482,-0.217 0.482,-0.481c-0,-1.732 -1.136,-3.496 -3.054,-4.869l0.282,-0c2.098,-0 6.877,-3.503 6.922,-3.541c0.388,-0.264 0.854,-0.386 1.322,-0.347c0.211,0.276 0.673,1.11 0.064,2.618c-0.381,0.926 -0.995,1.737 -1.784,2.354c-0.443,0.327 -0.802,0.756 -1.045,1.251c-0.134,0.383 -0.228,0.778 -0.283,1.18c-0.147,0.853 -0.269,1.418 -0.641,1.469c-0.598,0.073 -1.13,0.416 -1.443,0.93c-1.354,2.124 0.128,6.967 0.147,7.012c0.558,1.751 0.462,5.607 -3.028,9.571c-1.533,0.084 -2.566,0.161 -2.566,0.161c-0.257,0.01 -0.462,0.224 -0.462,0.481c-0,0.264 0.217,0.481 0.481,0.481c0.007,0 0.013,0 0.02,-0l0.038,-0l1.495,-0.096c-0.135,0.147 -0.334,0.301 -0.513,0.455Z" style="fill:#1d1d1b;fill-rule:nonzero;"/><path d="M43.876,16.972c0.144,-0.001 0.281,-0.067 0.372,-0.18l2.046,-2.515c0.076,-0.087 0.118,-0.199 0.118,-0.315c-0,-0.264 -0.217,-0.481 -0.481,-0.481c-0.149,-0 -0.29,0.069 -0.381,0.187l-2.046,2.515c-0.069,0.085 -0.107,0.191 -0.107,0.301c0,0.263 0.216,0.48 0.479,0.481l-0,0.007Zm-2.374,-1.296c0.057,0.01 0.116,0.01 0.173,-0c0.199,-0 0.378,-0.123 0.449,-0.308l0.905,-2.361c0.021,-0.055 0.032,-0.114 0.032,-0.173c0,-0.264 -0.217,-0.481 -0.481,-0.481c-0.199,-0 -0.378,0.123 -0.449,0.308l-0.905,2.36c-0.029,0.064 -0.044,0.132 -0.044,0.202c0,0.203 0.129,0.385 0.32,0.453Zm-1.969,-0.199c0.249,-0.019 0.444,-0.23 0.444,-0.48c-0,-0.013 -0.001,-0.026 -0.002,-0.04l-0.16,-2.046c-0.02,-0.25 -0.231,-0.444 -0.481,-0.444c-0.265,-0 -0.483,0.218 -0.483,0.482c0,0.013 0.001,0.026 0.002,0.039l0.16,2.046c0.019,0.25 0.23,0.445 0.48,0.445c0.013,-0 0.026,-0.001 0.04,-0.002Z" style="fill:#1d1d1b;fill-rule:nonzero;"/><circle cx="26.786" cy="37.698" r="0.674" style="fill:#1d1d1b;"/><circle cx="27.011" cy="39.989" r="0.674" style="fill:#1d1d1b;"/><circle cx="28.768" cy="41.496" r="0.674" style="fill:#1d1d1b;"/><circle cx="29.358" cy="39.155" r="0.674" style="fill:#1d1d1b;"/><circle cx="31.232" cy="40.335" r="0.674" style="fill:#1d1d1b;"/><circle cx="42.015" cy="37.698" r="0.674" style="fill:#1d1d1b;"/><circle cx="41.791" cy="39.989" r="0.674" style="fill:#1d1d1b;"/><circle cx="40.033" cy="41.496" r="0.674" style="fill:#1d1d1b;"/><circle cx="39.443" cy="39.155" r="0.674" style="fill:#1d1d1b;"/><circle cx="37.57" cy="40.335" r="0.674" style="fill:#1d1d1b;"/><path d="M36.684,26.575c-0.013,-0.001 -0.026,-0.002 -0.04,-0.002c-0.25,0 -0.46,0.195 -0.479,0.445c-0.182,1.318 -0.804,2.536 -1.764,3.457c-0.959,-0.923 -1.577,-2.144 -1.752,-3.464c-0.02,-0.249 -0.23,-0.444 -0.481,-0.444c-0.265,-0 -0.482,0.218 -0.482,0.483c-0,0.012 0,0.025 0.001,0.038c0.233,1.71 1.084,3.276 2.393,4.401c0.085,0.07 0.191,0.108 0.301,0.109c0.11,-0.001 0.217,-0.039 0.302,-0.109c1.308,-1.125 2.16,-2.691 2.393,-4.401c0.02,-0.245 -0.15,-0.468 -0.392,-0.513Zm-8.461,1.732c-0.224,-0.122 -0.509,-0.045 -0.642,0.173c-0.128,0.225 -0.295,0.462 -0.468,0.712c-0.859,1.245 -2.155,3.131 -0.327,5.132c0.087,0.073 0.196,0.113 0.31,0.113c0.264,0 0.481,-0.217 0.481,-0.481c-0,-0.098 -0.03,-0.193 -0.085,-0.273c-1.213,-1.315 -0.597,-2.451 0.41,-3.913c0.186,-0.276 0.366,-0.533 0.507,-0.777c0.049,-0.077 0.075,-0.167 0.075,-0.258c0,-0.18 -0.101,-0.346 -0.261,-0.428Zm13.035,0.173c-0.086,-0.149 -0.245,-0.241 -0.417,-0.241c-0.264,0 -0.481,0.218 -0.481,0.482c-0,0.084 0.022,0.167 0.064,0.24c0.141,0.244 0.321,0.501 0.507,0.776c1.007,1.463 1.623,2.599 0.411,3.914c-0.109,0.091 -0.172,0.226 -0.172,0.368c0,0.264 0.217,0.481 0.481,0.481c0.158,-0 0.307,-0.078 0.396,-0.208c1.829,-1.982 0.533,-3.849 -0.327,-5.132c-0.16,-0.218 -0.327,-0.455 -0.462,-0.68Zm-12.06,6.114c0.015,-0.048 0.023,-0.098 0.023,-0.148c0,-0.264 -0.217,-0.482 -0.482,-0.482c-0.208,0 -0.394,0.136 -0.458,0.335c-0.369,1.186 0.144,2.48 1.225,3.092c0.073,0.042 0.156,0.064 0.241,0.064c0.264,-0 0.481,-0.217 0.481,-0.481c-0,-0.172 -0.092,-0.332 -0.241,-0.417c-0.691,-0.385 -1.022,-1.208 -0.789,-1.963Zm10.091,2.777c1.081,-0.611 1.594,-1.905 1.225,-3.092c-0.064,-0.198 -0.25,-0.334 -0.459,-0.334c-0.264,0 -0.481,0.218 -0.481,0.482c-0,0.05 0.007,0.1 0.023,0.147c0.222,0.75 -0.107,1.561 -0.789,1.944c-0.149,0.086 -0.241,0.245 -0.241,0.417c-0,0.264 0.217,0.481 0.481,0.481c0.085,0 0.168,-0.022 0.241,-0.064l-0,0.019Zm-3.041,-2.681c-0.466,0.534 -1.142,0.841 -1.851,0.841c-0.709,-0 -1.384,-0.307 -1.85,-0.841c-0.094,-0.108 -0.23,-0.171 -0.372,-0.171c-0.27,0 -0.492,0.222 -0.492,0.492c0,0.117 0.043,0.231 0.12,0.32c0.648,0.757 1.595,1.193 2.591,1.193c0.996,-0 1.944,-0.436 2.592,-1.193c0.077,-0.089 0.119,-0.203 0.119,-0.32c0,-0.27 -0.222,-0.492 -0.491,-0.492c-0.143,0 -0.279,0.063 -0.372,0.171l0.006,-0Zm-14.35,-9.385c-0.079,-0.053 -0.172,-0.08 -0.266,-0.08c-0.264,-0 -0.481,0.217 -0.481,0.481c-0,0.189 0.112,0.362 0.285,0.439c1.687,0.93 2.418,2.303 2.418,2.797c0,0.264 0.218,0.481 0.482,0.481c0.263,0 0.481,-0.217 0.481,-0.481c-0,-0.994 -1.091,-2.63 -2.919,-3.637Zm25.711,0.192c-0.126,-0.225 -0.412,-0.311 -0.641,-0.192c-1.841,1.007 -2.945,2.643 -2.945,3.643c0,0.264 0.217,0.482 0.481,0.482c0.264,-0 0.481,-0.218 0.481,-0.482c0,-0.494 0.732,-1.873 2.419,-2.797c0.16,-0.082 0.262,-0.247 0.262,-0.428c-0,-0.079 -0.02,-0.156 -0.057,-0.226Z" style="fill:#1d1d1b;fill-rule:nonzero;"/></g><g id="_5afeb38c-54b7-45cf-8e8f-6e00f7dcb161" serif:id="5afeb38c-54b7-45cf-8e8f-6e00f7dcb161"><path d="M80.537,42.103l-0.575,-1.438l-2.192,-0l-0.57,1.438l-0.367,0l1.83,-4.582l0.411,-0l1.83,4.582l-0.367,0Zm-2.638,-1.756l1.939,0l-0.798,-1.998l-0.169,-0.486l-0.005,-0l-0.169,0.471l-0.798,2.013Zm8.976,-0.486l1.885,0l-0,2.242l-0.278,0l-0.015,-0.798c-0.126,0.277 -0.321,0.492 -0.585,0.644c-0.268,0.149 -0.599,0.223 -0.992,0.223c-0.417,0 -0.78,-0.095 -1.091,-0.287c-0.314,-0.192 -0.555,-0.466 -0.724,-0.823c-0.169,-0.357 -0.253,-0.774 -0.253,-1.25c0,-0.476 0.088,-0.893 0.263,-1.25c0.172,-0.357 0.415,-0.631 0.729,-0.823c0.314,-0.192 0.679,-0.288 1.096,-0.288c0.469,0 0.851,0.093 1.145,0.278c0.298,0.185 0.521,0.468 0.67,0.848l-0.322,0.164c-0.106,-0.318 -0.285,-0.559 -0.536,-0.724c-0.251,-0.166 -0.57,-0.248 -0.957,-0.248c-0.341,-0 -0.642,0.082 -0.903,0.248c-0.258,0.165 -0.458,0.401 -0.6,0.709c-0.145,0.307 -0.218,0.669 -0.218,1.086c0,0.635 0.152,1.134 0.456,1.498c0.304,0.363 0.724,0.545 1.26,0.545c0.334,0 0.617,-0.066 0.848,-0.198c0.231,-0.133 0.402,-0.306 0.511,-0.521c0.112,-0.215 0.168,-0.446 0.168,-0.694l0,-0.253l-1.557,-0l0,-0.328Zm6.933,1.925l2.891,-0l0,0.317l-3.238,0l0,-4.582l3.129,-0l0,0.317l-2.782,0l0,1.771l2.197,-0l0,0.327l-2.197,-0l0,1.85Zm10.891,-4.265l-0,4.582l-0.432,0l-2.43,-3.595l-0.337,-0.61l-0.01,-0l0.025,0.575l-0,3.63l-0.337,0l-0,-4.582l0.441,-0l2.42,3.59l0.347,0.615l-0.015,-0.575l0,-3.63l0.328,-0Zm8.539,3.422c-0.128,0.39 -0.353,0.692 -0.674,0.907c-0.324,0.215 -0.709,0.322 -1.155,0.322c-0.417,0 -0.784,-0.095 -1.101,-0.287c-0.315,-0.192 -0.558,-0.466 -0.729,-0.823c-0.169,-0.357 -0.253,-0.774 -0.253,-1.25c-0,-0.476 0.084,-0.893 0.253,-1.25c0.171,-0.357 0.414,-0.631 0.729,-0.823c0.317,-0.192 0.681,-0.288 1.091,-0.288c0.915,0 1.509,0.377 1.78,1.131l-0.342,0.159c-0.106,-0.324 -0.276,-0.567 -0.511,-0.729c-0.235,-0.162 -0.537,-0.243 -0.908,-0.243c-0.34,-0 -0.641,0.082 -0.902,0.248c-0.261,0.165 -0.465,0.401 -0.61,0.709c-0.142,0.307 -0.213,0.669 -0.213,1.086c-0,0.416 0.071,0.778 0.213,1.086c0.139,0.307 0.337,0.544 0.595,0.709c0.258,0.165 0.56,0.248 0.908,0.248c0.37,0 0.684,-0.091 0.942,-0.273c0.258,-0.182 0.438,-0.438 0.54,-0.768l0.347,0.129Zm4.841,0.843l2.896,-0l-0,0.317l-3.243,0l-0,-4.582l3.129,-0l-0,0.317l-2.782,0l-0,1.771l2.202,-0l-0,0.327l-2.202,-0l-0,1.85Zm14.461,-4.265c0.731,-0 1.294,0.193 1.691,0.58c0.397,0.387 0.595,0.945 0.595,1.676c0,0.751 -0.198,1.326 -0.595,1.726c-0.397,0.4 -0.96,0.6 -1.691,0.6l-1.443,0l-0,-4.582l1.443,-0Zm0.03,4.265c0.611,-0 1.079,-0.174 1.403,-0.521c0.327,-0.344 0.491,-0.84 0.491,-1.488c0,-0.621 -0.164,-1.099 -0.491,-1.433c-0.324,-0.337 -0.792,-0.506 -1.403,-0.506l-1.126,0l-0,3.948l1.126,-0Zm7.235,-0l2.891,-0l0,0.317l-3.238,0l0,-4.582l3.129,-0l0,0.317l-2.782,0l0,1.771l2.197,-0l0,0.327l-2.197,-0l0,1.85Zm15.285,-2.897l-0.923,3.214l-0.431,0l-1.429,-4.582l0.377,-0l1.27,4.299l1.2,-4.299l0.402,-0l1.2,4.304l1.284,-4.304l0.357,-0l-1.433,4.582l-0.426,0l-0.928,-3.214l-0.253,-0.991l-0.01,-0l-0.257,0.991Zm8.053,2.897l2.897,-0l-0,0.317l-3.244,0l0,-4.582l3.134,-0l0,0.317l-2.787,0l0,1.771l2.202,-0l0,0.327l-2.202,-0l0,1.85Zm7.375,0.317l-0,-4.582l1.616,-0c0.503,-0 0.878,0.104 1.126,0.312c0.245,0.208 0.367,0.509 0.367,0.903c0,0.268 -0.073,0.494 -0.218,0.679c-0.145,0.185 -0.352,0.306 -0.62,0.362l0,0.005c0.298,0.046 0.532,0.167 0.704,0.362c0.176,0.195 0.263,0.437 0.263,0.724c0,0.394 -0.14,0.698 -0.421,0.913c-0.281,0.215 -0.681,0.322 -1.201,0.322l-1.616,0Zm0.347,-2.47l1.279,0c0.744,0 1.116,-0.299 1.116,-0.897c0,-0.599 -0.372,-0.898 -1.116,-0.898l-1.279,0l-0,1.795Zm-0,2.153l1.339,-0c0.39,-0 0.684,-0.08 0.883,-0.238c0.198,-0.159 0.297,-0.386 0.297,-0.68c0,-0.301 -0.099,-0.529 -0.297,-0.684c-0.199,-0.156 -0.493,-0.233 -0.883,-0.233l-1.339,-0l-0,1.835Zm14.6,-4.265c0.734,-0 1.298,0.193 1.691,0.58c0.397,0.387 0.595,0.945 0.595,1.676c0,0.751 -0.198,1.326 -0.595,1.726c-0.393,0.4 -0.957,0.6 -1.691,0.6l-1.443,0l-0,-4.582l1.443,-0Zm0.03,4.265c0.611,-0 1.081,-0.174 1.408,-0.521c0.324,-0.344 0.486,-0.84 0.486,-1.488c0,-0.621 -0.162,-1.099 -0.486,-1.433c-0.327,-0.337 -0.797,-0.506 -1.408,-0.506l-1.126,0l-0,3.948l1.126,-0Zm7.235,-0l2.896,-0l0,0.317l-3.243,0l0,-4.582l3.129,-0l0,0.317l-2.782,0l0,1.771l2.202,-0l0,0.327l-2.202,-0l0,1.85Zm8.788,-4.335c0.863,0 1.44,0.337 1.731,1.012l-0.298,0.243c-0.116,-0.327 -0.289,-0.565 -0.521,-0.714c-0.228,-0.149 -0.529,-0.223 -0.902,-0.223c-0.271,-0 -0.506,0.043 -0.704,0.129c-0.199,0.082 -0.349,0.195 -0.452,0.337c-0.105,0.145 -0.158,0.307 -0.158,0.486c-0,0.175 0.044,0.321 0.134,0.436c0.086,0.116 0.234,0.215 0.446,0.298c0.212,0.079 0.502,0.152 0.873,0.218c0.595,0.102 1.018,0.251 1.269,0.446c0.248,0.192 0.372,0.46 0.372,0.804c0,0.244 -0.071,0.463 -0.213,0.654c-0.142,0.189 -0.344,0.334 -0.605,0.437c-0.265,0.106 -0.565,0.158 -0.903,0.158c-0.479,0 -0.884,-0.095 -1.215,-0.287c-0.334,-0.192 -0.56,-0.461 -0.679,-0.809l0.307,-0.238c0.093,0.331 0.278,0.582 0.556,0.754c0.281,0.175 0.628,0.263 1.041,0.263c0.397,0 0.721,-0.081 0.972,-0.243c0.255,-0.162 0.382,-0.385 0.382,-0.669c0,-0.245 -0.104,-0.439 -0.312,-0.581c-0.205,-0.145 -0.562,-0.261 -1.071,-0.347c-0.43,-0.076 -0.771,-0.167 -1.022,-0.273c-0.248,-0.105 -0.427,-0.238 -0.536,-0.396c-0.109,-0.156 -0.163,-0.352 -0.163,-0.59c-0,-0.235 0.067,-0.452 0.203,-0.65c0.136,-0.202 0.331,-0.36 0.585,-0.476c0.251,-0.119 0.546,-0.179 0.883,-0.179Zm6.7,0.07l-0,4.582l-0.347,0l-0,-4.582l0.347,-0Zm6.68,2.34l1.88,0l-0,2.242l-0.278,0l-0.01,-0.798c-0.126,0.277 -0.322,0.492 -0.59,0.644c-0.265,0.149 -0.594,0.223 -0.987,0.223c-0.417,0 -0.782,-0.095 -1.096,-0.287c-0.311,-0.192 -0.551,-0.466 -0.719,-0.823c-0.169,-0.357 -0.253,-0.774 -0.253,-1.25c-0,-0.476 0.086,-0.893 0.258,-1.25c0.175,-0.357 0.42,-0.631 0.734,-0.823c0.314,-0.192 0.679,-0.288 1.096,-0.288c0.466,0 0.848,0.093 1.145,0.278c0.298,0.185 0.519,0.468 0.665,0.848l-0.318,0.164c-0.105,-0.318 -0.284,-0.559 -0.535,-0.724c-0.255,-0.166 -0.574,-0.248 -0.957,-0.248c-0.344,-0 -0.645,0.082 -0.903,0.248c-0.258,0.165 -0.459,0.401 -0.605,0.709c-0.142,0.307 -0.213,0.669 -0.213,1.086c-0,0.635 0.152,1.134 0.456,1.498c0.301,0.363 0.721,0.545 1.26,0.545c0.33,0 0.611,-0.066 0.843,-0.198c0.231,-0.133 0.403,-0.306 0.516,-0.521c0.112,-0.215 0.168,-0.446 0.168,-0.694l0,-0.253l-1.557,-0l0,-0.328Zm10.102,-2.34l-0,4.582l-0.431,0l-2.43,-3.595l-0.338,-0.61l-0.01,-0l0.02,0.575l0,3.63l-0.332,0l-0,-4.582l0.436,-0l2.425,3.59l0.348,0.615l-0.015,-0.575l-0,-3.63l0.327,-0Z" style="fill-rule:nonzero;"/></g></svg>